<?xml version="1.0" encoding="UTF-8"?>
<svg width="15px" height="15px" viewBox="0 0 15 15" version="1.1" xmlns="http://www.w3.org/2000/svg" xmlns:xlink="http://www.w3.org/1999/xlink">
    <!-- Generator: Sketch 52.6 (67491) - http://www.bohemiancoding.com/sketch -->
    <title>icon / instagram copy</title>
    <desc>Created with Sketch.</desc>
    <defs>
        <path d="M10.625,0.625 L4.375,0.625 C2.3125,0.625 0.625,2.3125 0.625,4.375 L0.625,10.625 C0.625,12.6875 2.3125,14.375 4.375,14.375 L10.625,14.375 C12.6875,14.375 14.375,12.6875 14.375,10.625 L14.375,4.375 C14.375,2.3125 12.6875,0.625 10.625,0.625 Z M13.125,10.625 C13.125,12 12,13.125 10.625,13.125 L4.375,13.125 C3,13.125 1.875,12 1.875,10.625 L1.875,4.375 C1.875,3 3,1.875 4.375,1.875 L10.625,1.875 C12,1.875 13.125,3 13.125,4.375 L13.125,10.625 Z M8,4.375 C7.6875,4.3125 7.375,4.3125 7.0625,4.375 C5.375,4.625 4.1875,6.25 4.4375,7.9375 C4.6875,9.5 6,10.625 7.5,10.625 C7.625,10.625 7.8125,10.625 7.9375,10.5625 C8.75,10.4375 9.5,10 10,9.3125 C10.5,8.625 10.6875,7.8125 10.5625,7 C10.4375,5.625 9.375,4.5625 8,4.375 Z M9.0625,8.5625 C8.75,8.9375 8.3125,9.25 7.8125,9.3125 C6.8125,9.4375 5.8125,8.75 5.6875,7.75 C5.5,6.75 6.25,5.75 7.25,5.625 C7.3125,5.625 7.4375,5.625 7.5,5.625 C7.5625,5.625 7.6875,5.625 7.75,5.625 C8.5625,5.75 9.1875,6.375 9.3125,7.1875 C9.4375,7.6875 9.3125,8.1875 9.0625,8.5625 Z M11.5,3.8125 C11.5,3.875 11.5625,3.9375 11.5625,4.0625 C11.5625,4.25 11.5,4.375 11.375,4.5 C11.25,4.625 11.0625,4.6875 10.9375,4.6875 C10.8125,4.6875 10.625,4.625 10.5,4.5 C10.375,4.375 10.3125,4.1875 10.3125,4.0625 C10.3125,4 10.3125,3.875 10.375,3.8125 C10.375,3.75 10.4375,3.6875 10.5,3.625 C10.75,3.375 11.125,3.375 11.375,3.625 C11.4375,3.6875 11.5,3.75 11.5,3.8125 Z" id="path-1"></path>
    </defs>
    <g id="Page-1" stroke="none" stroke-width="1" fill="none" fill-rule="evenodd">
        <g id="Hado-Landingpage-prio-mobile" transform="translate(-251.000000, -30.000000)">
            <rect id="Background" fill="#000000" x="0" y="0" width="323" height="90"></rect>
            <g id="icon-/-instagram-copy" transform="translate(251.000000, 30.000000)">
                <mask id="mask-2" fill="white">
                    <use xlink:href="#path-1"></use>
                </mask>
                <use id="Mask" fill="#000000" fill-rule="nonzero" xlink:href="#path-1"></use>
                <g id="color-/-white" mask="url(#mask-2)" fill="#FFFFFF">
                    <rect id="Shape" x="0" y="0" width="15" height="15"></rect>
                </g>
            </g>
        </g>
    </g>
</svg>