<?xml version="1.0" encoding="UTF-8"?>
<svg width="9px" height="15px" viewBox="0 0 9 15" version="1.1" xmlns="http://www.w3.org/2000/svg" xmlns:xlink="http://www.w3.org/1999/xlink">
    <!-- Generator: Sketch 52.6 (67491) - http://www.bohemiancoding.com/sketch -->
    <title>icon / facebook copy</title>
    <desc>Created with Sketch.</desc>
    <defs>
        <path d="M11.2274351,4.375 C11.6013069,4.375 11.8505547,4.125 11.8505547,3.75 L11.8505547,1.25 C11.8505547,0.875 11.6013069,0.625 11.2274351,0.625 L9.35807634,0.625 C7.30178168,0.625 5.61935878,2.3125 5.61935878,4.375 L5.61935878,5.625 L4.37311959,5.625 C3.99924784,5.625 3.75,5.875 3.75,6.25 L3.75,8.75 C3.75,9.125 3.99924784,9.375 4.37311959,9.375 L5.61935878,9.375 L5.61935878,13.75 C5.61935878,14.125 5.86860662,14.375 6.24247837,14.375 L8.73495675,14.375 C9.1088285,14.375 9.35807634,14.125 9.35807634,13.75 L9.35807634,9.375 L10.6043155,9.375 C10.9158753,9.375 11.1651232,9.1875 11.2274351,8.875 L11.8505547,6.375 C11.9128667,6.1875 11.8505547,6 11.7259308,5.8125 C11.6013069,5.625 11.414371,5.625 11.2274351,5.625 L9.35807634,5.625 L9.35807634,4.375 L11.2274351,4.375 Z M8.73495675,6.875 L10.4173797,6.875 L10.1058199,8.125 L8.73495675,8.125 C8.36108499,8.125 8.11183715,8.375 8.11183715,8.75 L8.11183715,13.125 L6.86559797,13.125 L6.86559797,8.75 C6.86559797,8.375 6.61635013,8.125 6.24247837,8.125 L4.99623919,8.125 L4.99623919,6.875 L6.24247837,6.875 C6.61635013,6.875 6.86559797,6.625 6.86559797,6.25 L6.86559797,4.375 C6.86559797,3 7.98721324,1.875 9.35807634,1.875 L10.6043155,1.875 L10.6043155,3.125 L9.35807634,3.125 C8.67264479,3.125 8.11183715,3.6875 8.11183715,4.375 L8.11183715,6.25 C8.11183715,6.625 8.36108499,6.875 8.73495675,6.875 Z" id="path-1"></path>
    </defs>
    <g id="Page-1" stroke="none" stroke-width="1" fill="none" fill-rule="evenodd">
        <g id="Hado-Landingpage-prio-mobile" transform="translate(-219.000000, -30.000000)">
            <rect id="Background" fill="#000000" x="0" y="0" width="323" height="90"></rect>
            <g id="icon-/-facebook" transform="translate(216.000000, 30.000000)">
                <mask id="mask-2" fill="white">
                    <use xlink:href="#path-1"></use>
                </mask>
                <use id="Mask" fill="#000000" fill-rule="nonzero" xlink:href="#path-1"></use>
                <g id="color-/-white" mask="url(#mask-2)" fill="#FFFFFF" fill-rule="evenodd">
                    <rect id="Shape" x="0" y="0" width="15" height="15"></rect>
                </g>
            </g>
        </g>
    </g>
</svg>