<?xml version="1.0" encoding="UTF-8"?>
<svg width="14px" height="15px" viewBox="0 0 14 15" version="1.1" xmlns="http://www.w3.org/2000/svg" xmlns:xlink="http://www.w3.org/1999/xlink">
    <!-- Generator: Sketch 52.6 (67491) - http://www.bohemiancoding.com/sketch -->
    <title>Fill 14 Copy</title>
    <desc>Created with Sketch.</desc>
    <g id="Page-1" stroke="none" stroke-width="1" fill="none" fill-rule="evenodd">
        <g id="Hado-Landingpage-prio-mobile" transform="translate(-286.000000, -30.000000)">
            <rect id="Background" fill="#000000" x="0" y="0" width="323" height="90"></rect>
            <path d="M293.304348,33.6276879 C293.304348,32.1389629 292.478649,31.2 291.140492,31.2 C289.93602,31.2 289.043478,32.0965747 289.043478,33.3206946 C289.043478,34.39196 289.533655,35.1575167 291.118211,36.6 C292.658206,35.8562797 293.304348,35.0059467 293.304348,33.6276879 Z M290.095316,37.8 C288.86117,38.6780188 288.434783,39.3890299 288.434783,40.5384363 C288.434783,42.4393778 289.755207,43.8 291.649566,43.8 C292.669894,43.8 293.542674,43.4230045 294.521739,42.5449857 L290.095316,37.8 Z M295.556136,41.0515638 C296.288512,40.0371936 296.556136,39.4539307 296.800261,38.5042265 L296.400783,38.0934066 L295.177546,37.9209637 L295.177546,37.0371936 L299.68799,37.0371936 L299.68799,37.9209637 L298.088773,38.1365173 C297.600522,39.647929 297.133159,40.5760778 296.244125,41.8060017 L297.977807,43.7497887 L300,43.8562975 L300,44.7413356 L296.088773,44.7413356 L296.088773,44.2240068 L295.088773,43.1437025 C293.399478,44.4826712 292.199739,45 290.689295,45 C288,45 286,43.1868132 286,40.7497887 C286,39 286.800261,37.9209637 288.93342,36.885038 C287.488251,35.4180051 287.110966,34.704142 287.110966,33.5604396 C287.110966,31.532967 288.866841,30 291.199739,30 C293.422977,30 295,31.3808115 295,33.3448859 C295,34.9196957 294.155352,35.8693998 291.732376,37.0371936 L295.556136,41.0515638 Z" id="Fill-14-Copy" fill="#7CBE75"></path>
        </g>
    </g>
</svg>