<?xml version="1.0" encoding="UTF-8"?>
<svg width="280px" height="32px" viewBox="0 0 280 32" version="1.1" xmlns="http://www.w3.org/2000/svg" xmlns:xlink="http://www.w3.org/1999/xlink">
    <!-- Generator: Sketch 52.6 (67491) - http://www.bohemiancoding.com/sketch -->
    <title>Logo-buehlerbuehler</title>
    <desc>Created with Sketch.</desc>
    <g id="Page-1" stroke="none" stroke-width="1" fill="none" fill-rule="evenodd">
        <g id="Hado-Landingpage-prio-mobile" transform="translate(-20.000000, -3766.000000)">
            <g id="Footer" transform="translate(0.000000, 3629.000000)">
                <rect id="Rectangle" fill="#000000" x="0" y="0" width="323" height="405"></rect>
                <g id="Logo-buehlerbuehler" transform="translate(20.000000, 137.000000)">
                    <g id="Group-28">
                        <path d="M6.78649418,29.0649745 C8.31426537,29.149106 8.56847852,29.149106 9.12176596,29.149106 C14.5948255,29.149106 17.1793259,26.4519476 17.1793259,20.765645 C17.1793259,15.5445402 14.8066698,12.5949872 10.604676,12.5949872 C9.54545455,12.5949872 8.52610966,12.7607759 6.78649418,13.2234994 L6.78649418,29.0649745 Z M6.78649418,0 L6.78649418,11.7932631 C8.9921671,10.7836845 10.7741514,10.3630268 12.5985046,10.3630268 C17.6902445,10.3630268 21,14.2380268 21,20.2187899 C21,27.1670658 16.6285307,31 8.69807738,31 L3.26738666,31 L3.26738666,2.82088123 L0,2.82088123 L0,1.51436782 L5.21884643,0 L6.78649418,0 Z" id="Fill-2" fill="#FEFEFE"></path>
                        <path d="M41.1738535,4.18529708 C41.1738535,5.38620342 40.235227,6.33031219 39.0381018,6.33031219 C37.8434862,6.33031219 36.8596851,5.38620342 36.8596851,4.18529708 C36.8596851,2.94159114 37.7983117,2 39.0381018,2 C40.235227,2 41.1738535,2.98439074 41.1738535,4.18529708 Z M33.2281542,4.18529708 C33.2281542,5.38620342 32.287018,6.33031219 31.0924025,6.33031219 C29.8952772,6.33031219 28.9114762,5.38620342 28.9114762,4.18529708 C28.9114762,2.94159114 29.8551221,2 31.0924025,2 C32.287018,2 33.2281542,2.98439074 33.2281542,4.18529708 Z M30.5804244,10.5699899 L30.5804244,24.7567976 C30.5804244,27.8434038 31.8603696,29.2557905 34.7239334,29.2557905 C36.3050422,29.2557905 37.712982,28.9133938 39.6805841,28.0120846 L39.6805841,13.4828802 L36.6463609,13.4828802 L36.6463609,12.153575 L41.6005019,10.5699899 L43.2242756,10.5699899 L43.2242756,29.172709 L43.9947525,29.8549849 L46,30.0715005 L46,31.612286 L39.6805841,31.612286 L39.6805841,29.2129909 C36.5610313,31.3101712 34.8519279,32 32.6308465,32 C29.0419804,32 27.0342231,29.6435045 27.0342231,25.4869084 L27.0342231,13.4828802 L24,13.4828802 L24,12.153575 L28.9566507,10.5699899 L30.5804244,10.5699899 Z" id="Fill-4" fill="#FEFEFE"></path>
                        <path d="M54.6809365,0 L54.6809365,12.8473819 C58.1857302,10.9494732 59.8559643,10.3605524 61.6120401,10.3605524 C65.0334448,10.3605524 67.0372352,12.7187101 67.0372352,16.7199074 L67.0372352,28.5997765 L67.7460424,29.2728289 L70,29.4856322 L70,31 L60.8590858,31 L60.8590858,29.4856322 L62.8628763,29.2728289 L63.5716834,28.5997765 L63.5716834,17.4375 C63.5716834,14.4458812 62.3625418,13.1393678 59.5641026,13.1393678 C58.0630992,13.1393678 56.851505,13.4783685 54.6809365,14.487947 L54.6809365,28.5997765 L55.4314381,29.2728289 L57.393534,29.4856322 L57.393534,31 L48.2501672,31 L48.2501672,29.4856322 L50.5041249,29.2728289 L51.2153846,28.5997765 L51.2153846,2.82088123 L48,2.82088123 L48,1.51436782 L53.0916388,0 L54.6809365,0 Z" id="Fill-6" fill="#FEFEFE"></path>
                        <polygon id="Fill-8" fill="#FEFEFE" points="72.0423201 29.4856322 74.5416978 29.2728289 75.2636296 28.602251 75.2636296 2.82088123 72 2.82088123 72 1.51436782 77.1705253 0 78.78118 0 78.78118 28.602251 79.5429425 29.2728289 82 29.4856322 82 31 72.0423201 31"></polygon>
                        <path d="M98.3186106,17.7829056 C98.3186106,15.8075112 98.1946827,14.9224158 97.7402802,13.9977631 C96.9942824,12.6083117 95.7550029,11.8493054 94.1002001,11.8493054 C91.1648085,11.8493054 89.2184105,14.0397928 88.764008,17.7829056 L98.3186106,17.7829056 Z M102,28.4732753 C99.2711549,30.2409936 96.9140938,31 94.3067467,31 C88.764008,31 85,26.8341182 85,20.6878973 C85,14.4180598 88.9705546,10 94.5546026,10 C99.147227,10 102,13.1126678 102,18.1636449 C102,18.4578526 102,18.9201789 101.958691,19.550624 L88.5574614,19.550624 C88.5574614,21.4889334 88.6813894,22.3740287 89.0531732,23.6794208 C90.0057176,26.7896162 92.3627787,28.6018366 95.4634077,28.6018366 C97.5337336,28.6018366 99.147227,28.0109489 102,26.1591712 L102,28.4732753 Z" id="Fill-10" fill="#FEFEFE"></path>
                        <path d="M105,29.4623116 L107.340805,29.2462312 L108.076923,28.5653266 L108.076923,13.0829146 L105,13.0829146 L105,11.7562814 L110.028018,10.2135678 L111.676006,10.2135678 L111.676006,14.2336683 C113.107489,12.781407 114.49567,11.540201 116.316862,10.0854271 C116.747326,10 116.963831,10 117.356088,10 C118.308711,10 118.917473,10.1281407 120,10.5552764 L120,14.2336683 L118.611819,14.2336683 C117.921549,13.4673367 117.356088,13.2085427 116.446765,13.2085427 C115.015283,13.2085427 113.670402,14.1080402 111.676006,16.3316583 L111.676006,28.5653266 L112.414671,29.2462312 L115.448293,29.4623116 L115.448293,31 L105,31 L105,29.4623116 Z" id="Fill-12" fill="#FEFEFE"></path>
                        <path d="M140.756807,8.77852916 C140.756807,5.83939138 139.170645,3.98562975 136.600056,3.98562975 C134.286274,3.98562975 132.571708,5.75570583 132.571708,8.17244294 C132.571708,10.2874049 133.513335,11.7988166 136.557255,14.646661 C139.515573,13.1783601 140.756807,11.4995773 140.756807,8.77852916 Z M134.286274,17.0228233 C131.801287,18.8360101 130.942745,20.3043111 130.942745,22.6779374 C130.942745,26.6035503 133.601455,29.4133559 137.415796,29.4133559 C139.470254,29.4133559 141.22762,28.6348267 143.198993,26.8216399 L134.286274,17.0228233 Z M145.42969,24.1031276 C146.84213,22.0743872 147.358262,20.9078614 147.829075,19.0084531 L147.058653,18.1868132 L144.699552,17.8419273 L144.699552,16.0743872 L153.398266,16.0743872 L153.398266,17.8419273 L150.314062,18.2730347 C149.372436,21.295858 148.471093,23.1521555 146.756527,25.6120034 L150.100056,29.4995773 L154,29.7125951 L154,31.4826712 L146.456919,31.4826712 L146.456919,30.4480135 L144.528348,28.2874049 C141.270421,30.9653423 138.956639,32 136.04364,32 C130.857143,32 127,28.3736264 127,23.4995773 C127,20 128.543361,17.8419273 132.657311,15.7700761 C129.870198,12.8360101 129.142577,11.408284 129.142577,9.12087912 C129.142577,5.06593407 132.528907,2 137.028068,2 C141.31574,2 144.357143,4.76162299 144.357143,8.68977177 C144.357143,11.8393914 142.72818,13.7387997 138.055297,16.0743872 L145.42969,24.1031276 Z" id="Fill-14" fill="#7CBE75"></path>
                        <path d="M167.7873,29.0649745 C169.31276,29.149106 169.567003,29.149106 170.120356,29.149106 C175.594065,29.149106 178.181365,26.4519476 178.181365,20.765645 C178.181365,15.5445402 175.805935,12.5949872 171.603442,12.5949872 C170.544095,12.5949872 169.524629,12.7607759 167.7873,13.2234994 L167.7873,29.0649745 Z M167.7873,0 L167.7873,11.7932631 C169.993234,10.7836845 171.77543,10.3630268 173.597507,10.3630268 C178.692344,10.3630268 182,14.2380268 182,20.2187899 C182,27.1670658 177.630504,31 169.696617,31 L164.265282,31 L164.265282,2.82088123 L161,2.82088123 L161,1.51436782 L166.216973,0 L167.7873,0 Z" id="Fill-16" fill="#FEFEFE"></path>
                        <path d="M201.173854,4.18529708 C201.173854,5.38620342 200.235227,6.33031219 199.038102,6.33031219 C197.843486,6.33031219 196.859685,5.38620342 196.859685,4.18529708 C196.859685,2.94159114 197.798312,2 199.038102,2 C200.235227,2 201.173854,2.98439074 201.173854,4.18529708 Z M193.228154,4.18529708 C193.228154,5.38620342 192.287018,6.33031219 191.092402,6.33031219 C189.897787,6.33031219 188.913986,5.38620342 188.913986,4.18529708 C188.913986,2.94159114 189.855122,2 191.092402,2 C192.287018,2 193.228154,2.98439074 193.228154,4.18529708 Z M190.580424,10.5699899 L190.580424,24.7567976 C190.580424,27.8434038 191.86037,29.2557905 194.723933,29.2557905 C196.305042,29.2557905 197.712982,28.9133938 199.680584,28.0120846 L199.680584,13.4828802 L196.646361,13.4828802 L196.646361,12.153575 L201.600502,10.5699899 L203.224276,10.5699899 L203.224276,29.172709 L203.994752,29.8549849 L206,30.0715005 L206,31.612286 L199.680584,31.612286 L199.680584,29.2129909 C196.561031,31.3101712 194.851928,32 192.630846,32 C189.04198,32 187.034223,29.6435045 187.034223,25.4869084 L187.034223,13.4828802 L184,13.4828802 L184,12.153575 L188.956651,10.5699899 L190.580424,10.5699899 Z" id="Fill-18" fill="#FEFEFE"></path>
                        <path d="M214.679228,0 L214.679228,12.8498563 C218.184413,10.9494732 219.857286,10.3605524 221.611105,10.3605524 C225.032891,10.3605524 227.036905,12.7187101 227.036905,16.7199074 L227.036905,28.602251 L227.745791,29.2728289 L230,29.4856322 L230,31 L220.858067,31 L220.858067,29.4856322 L222.86208,29.2728289 L223.57342,28.602251 L223.57342,17.4399745 C223.57342,14.4458812 222.36169,13.1393678 219.565392,13.1393678 C218.061768,13.1393678 216.847586,13.4783685 214.679228,14.487947 L214.679228,28.602251 L215.429814,29.2728289 L217.392128,29.4856322 L217.392128,31 L208.247742,31 L208.247742,29.4856322 L210.504404,29.2728289 L211.21329,28.602251 L211.21329,2.82088123 L208,2.82088123 L208,1.51436782 L213.089754,0 L214.679228,0 Z" id="Fill-20" fill="#FEFEFE"></path>
                        <polygon id="Fill-22" fill="#FEFEFE" points="232.042331 29.4856322 234.542331 29.2728289 235.261952 28.602251 235.261952 2.82088123 232 2.82088123 232 1.51436782 237.171813 0 238.782869 0 238.782869 28.602251 239.544821 29.2728289 242 29.4856322 242 31 232.042331 31"></polygon>
                        <path d="M258.316707,17.7844614 C258.316707,15.8092996 258.192797,14.9243084 257.743319,13.9997646 C256.997427,12.6104768 255.755895,11.8515597 254.101329,11.8515597 C251.163927,11.8515597 249.220237,14.0417893 248.7659,17.7844614 L258.316707,17.7844614 Z M262,28.4735727 C259.271545,30.241083 256.914821,31 254.310276,31 C248.7659,31 245,26.8346086 245,20.6915833 C245,14.4200118 248.974846,10 254.555667,10 C259.145205,10 262,13.1147734 262,18.165156 C262,18.459329 262,18.9216009 261.958697,19.5519717 L248.556953,19.5519717 C248.556953,21.490053 248.683293,22.3750441 249.057453,23.6802825 C250.007432,26.7901118 252.364156,28.6021189 255.464342,28.6021189 C257.534372,28.6021189 259.145205,28.0113008 262,26.159741 L262,28.4735727 Z" id="Fill-24" fill="#FEFEFE"></path>
                        <path d="M265,29.4623116 L267.34001,29.2462312 L268.078425,28.5653266 L268.078425,13.080402 L265,13.080402 L265,11.7562814 L270.028858,10.2135678 L271.676286,10.2135678 L271.676286,14.2336683 C273.10219,12.781407 274.492446,11.540201 276.315566,10.0854271 C276.743337,10 276.959769,10 277.354439,10 C278.306739,10 278.912748,10.1281407 280,10.5552764 L280,14.2336683 L278.607197,14.2336683 C277.912069,13.4673367 277.354439,13.2085427 276.442879,13.2085427 C275.009336,13.2085427 273.670005,14.1080402 271.676286,16.3316583 L271.676286,28.5653266 L272.412154,29.2462312 L275.447292,29.4623116 L275.447292,31 L265,31 L265,29.4623116 Z" id="Fill-26" fill="#FEFEFE"></path>
                    </g>
                </g>
            </g>
        </g>
    </g>
</svg>