<?xml version="1.0" encoding="UTF-8"?>
<svg width="58px" height="60px" viewBox="0 0 58 60" version="1.1" xmlns="http://www.w3.org/2000/svg" xmlns:xlink="http://www.w3.org/1999/xlink">
    <!-- Generator: Sketch 52.6 (67491) - http://www.bohemiancoding.com/sketch -->
    <title>Logo-lab</title>
    <desc>Created with Sketch.</desc>
    <defs>
        <polygon id="path-1" points="0.0575930113 0.0299538462 21.615044 0.0299538462 21.615044 16.4983077 0.0575930113 16.4983077"></polygon>
    </defs>
    <g id="Page-1" stroke="none" stroke-width="1" fill="none" fill-rule="evenodd">
        <g id="Hado-Landingpage-prio-mobile" transform="translate(-20.000000, -3864.000000)">
            <g id="Footer" transform="translate(0.000000, 3629.000000)">
                <rect id="Rectangle" fill="#000000" x="0" y="0" width="323" height="405"></rect>
                <g id="Logo-lab" transform="translate(20.000000, 235.000000)">
                    <polygon id="Fill-1" fill="#FEFEFE" points="0 43.0769231 0 60 13.92 60 13.92 57.0378444 2.87197344 57.0378444 2.87197344 43.0769231"></polygon>
                    <g id="Group-7" transform="translate(17.013333, 43.076923)">
                        <g id="Group-4">
                            <mask id="mask-2" fill="white">
                                <use xlink:href="#path-1"></use>
                            </mask>
                            <g id="Clip-3"></g>
                            <path d="M18.1775597,16.4538 L15.7304793,12.3685692 L8.02506897,12.3685692 L9.36772991,10.1042615 L14.3759063,10.1042615 L10.734215,4.02549231 L3.32490481,16.4758 L0.0575930113,16.4758 L9.44771098,0.925184615 C9.70637316,0.392107692 10.2424165,0.0468769231 10.8363185,0.0299538462 C11.4302205,0.0519538462 11.9594569,0.407338462 12.2028036,0.947184615 L21.615044,16.4994923 L18.1775597,16.4538 Z" id="Fill-2" fill="#FEFEFE" mask="url(#mask-2)"></path>
                        </g>
                        <path d="M29.1026335,9.39078462 L29.1026335,7.00293846 L35.3462621,7.00293846 C36.9629008,7.00293846 37.7252736,6.44786154 37.7252736,5.03309231 C37.7252736,3.31201538 36.3587885,3.04124615 34.2418427,3.04124615 L27.0758792,3.04124615 L27.0758792,13.6130923 L34.5039083,13.6130923 C36.5527851,13.6130923 38.0332858,13.0580154 38.0332858,11.4621692 C38.0332858,10.1269385 37.1568974,9.35693846 35.5623812,9.35693846 L29.1026335,9.39078462 Z M24.1863503,16.4544769 L24.1863503,0.211707692 L35.3462621,0.211707692 C38.5335929,0.211707692 40.6505386,1.63832308 40.6505386,4.41032308 C40.8105008,5.9554 39.8609383,7.40063077 38.3736307,7.87447692 C39.968147,8.37201538 41.0215147,9.88155385 40.9347267,11.5417077 C40.9347267,14.5184769 38.8637275,16.4544769 35.6763968,16.4544769 L24.1863503,16.4544769 Z" id="Fill-5" fill="#FEFEFE"></path>
                    </g>
                    <g id="Group-12" transform="translate(18.560000, 0.000000)" fill="#7CBE75">
                        <path d="M4.11875787,11.2318274 C3.5334992,10.382474 3.19323253,9.35404014 3.19323253,8.24032981 C3.19323253,5.33922524 5.54107253,2.98047885 8.44014453,2.98047885 C8.6477072,2.98047885 8.84846453,2.99071202 9.04241653,3.01970601 C9.8624592,3.10839351 10.6212539,3.38810024 11.2796699,3.81789351 C12.0997125,4.35001851 12.7632325,5.10386226 13.1817605,5.9992649 C13.5050139,6.68147644 13.6836539,7.43532019 13.6836539,8.24032981 C13.6836539,9.14084904 13.4607792,9.98508582 13.0643685,10.7286964 L13.0524592,10.7508683 L12.8244805,11.1312012 L12.7904539,11.1806615 L9.83523787,16.1181675 L9.64468853,16.4302793 L8.03352587,19.1198983 L5.79797387,22.8601231 L5.6363472,23.1278911 C5.38454987,23.5815618 5.24504053,24.1068647 5.24504053,24.6662781 C5.24504053,25.6725401 5.7026992,26.5730594 6.4223632,27.1648779 L9.70593653,21.6867192 L10.9172859,19.6741952 L12.3327952,17.3035101 L15.1995419,12.5177962 L15.3730779,12.2329728 L15.4445339,12.1101748 L15.4785605,12.0487757 C16.0927419,10.9180101 16.4432165,9.62180817 16.4432165,8.24032981 C16.4432165,7.37392115 16.3037072,6.53650649 16.0468059,5.75366875 L16.0468059,5.74684663 C15.7626832,4.87020481 15.3288432,4.06519519 14.7708059,3.34887308 C14.1957552,2.60014591 13.4931045,1.96227813 12.6900752,1.45914712 C12.0316592,1.04640913 11.3068912,0.72747524 10.5378885,0.52110625 C9.87947253,0.342025721 9.1887312,0.246516106 8.4690672,0.246516106 C4.06261387,0.246516106 0.493216533,3.82471563 0.493216533,8.24032981 C0.493216533,10.3483635 1.3081552,12.2653779 2.64710453,13.6912 L4.11875787,11.2318274 Z" id="Fill-8"></path>
                        <path d="M14.2238272,18.6785075 L12.7521739,21.1276469 L12.7521739,21.1327635 C13.5432939,22.0946817 14.0179659,23.324368 14.0179659,24.6666192 C14.0179659,27.7399822 11.5357205,30.2334654 8.46821653,30.2334654 C8.0888192,30.2334654 7.7213312,30.1942382 7.3640512,30.122606 C6.5780352,29.9656974 5.8481632,29.6365303 5.21696853,29.177743 L5.21186453,29.177743 C4.4139392,28.5961577 3.77934187,27.8082034 3.37612587,26.8957454 C3.0817952,26.2152394 2.9133632,25.4596901 2.9133632,24.6666192 C2.9133632,23.7217563 3.1481472,22.8314702 3.5615712,22.050338 L3.58368853,22.0111108 L3.78954987,21.670005 L3.8627072,21.5523236 L6.89108053,16.4988416 L7.1139552,16.1185087 L7.1190592,16.1185087 L8.6859872,13.4954053 L8.6910912,13.4954053 L10.8722005,9.85069014 L11.0168139,9.61021058 L11.0287232,9.5880387 C11.2396885,9.18553389 11.3621845,8.72674663 11.3621845,8.24067091 C11.3621845,7.23440889 10.8500832,6.35094495 10.0691712,5.84269736 L7.1139552,10.7682647 L5.87538453,12.8370712 L4.4802912,15.161707 L1.37535787,20.3499257 C0.6114592,21.608606 0.170813867,23.0838885 0.170813867,24.6666192 C0.170813867,25.510856 0.298413867,26.3260988 0.533197867,27.0969978 L0.533197867,27.10382 C0.8054112,28.0026337 1.23074453,28.8366373 1.7700672,29.5751313 C2.32810453,30.3409137 3.01374187,31.00607 3.79465387,31.541606 L3.8014592,31.541606 C4.44286187,31.983338 5.14551253,32.3312659 5.89239787,32.576862 C6.7056352,32.8395135 7.56991253,32.9844834 8.46821653,32.9844834 C13.0533099,32.9844834 16.7673205,29.2613139 16.7673205,24.6666192 C16.7673205,22.3129894 15.7907552,20.1879005 14.2238272,18.6785075" id="Fill-10"></path>
                    </g>
                </g>
            </g>
        </g>
    </g>
</svg>