<?xml version="1.0" encoding="UTF-8"?>
<svg width="83px" height="38px" viewBox="0 0 83 38" version="1.1" xmlns="http://www.w3.org/2000/svg" xmlns:xlink="http://www.w3.org/1999/xlink">
    <!-- Generator: Sketch 52.6 (67491) - http://www.bohemiancoding.com/sketch -->
    <title>Logo-epikk</title>
    <desc>Created with Sketch.</desc>
    <defs>
        <polygon id="path-1" points="0.140726694 0.453229314 19.2428955 0.453229314 19.2428955 28.6938776 0.140726694 28.6938776"></polygon>
        <polygon id="path-3" points="0 37.2244898 83 37.2244898 83 0 0 0"></polygon>
    </defs>
    <g id="Page-1" stroke="none" stroke-width="1" fill="none" fill-rule="evenodd">
        <g id="Hado-Landingpage-prio-mobile" transform="translate(-217.000000, -3896.000000)">
            <g id="Footer" transform="translate(0.000000, 3629.000000)">
                <rect id="Rectangle" fill="#000000" x="0" y="0" width="323" height="405"></rect>
                <g id="Logo-epikk" transform="translate(217.000000, 267.000000)">
                    <g id="Group-3" transform="translate(20.943925, 8.530612)">
                        <mask id="mask-2" fill="white">
                            <use xlink:href="#path-1"></use>
                        </mask>
                        <g id="Clip-2"></g>
                        <path d="M9.65450473,19.7181718 C8.81282074,19.7181718 8.0378955,19.6284241 7.32318405,19.4475892 L8.27875064,15.5576301 C8.68584819,15.7103351 9.14399655,15.7866876 9.65450473,15.7866876 C10.418958,15.7866876 11.1454504,15.6406801 11.831364,15.3433072 C12.5185865,15.0499529 13.1181064,14.644079 13.6273055,14.1297043 C14.1365047,13.616669 14.5370573,13.0125466 14.8302723,12.320016 C15.1234872,11.6261458 15.2700947,10.8800345 15.2700947,10.0857006 C15.2700947,9.31547792 15.1234872,8.58945937 14.8302723,7.90898442 C14.5370573,7.22850946 14.1365047,6.62974508 13.6273055,6.11804935 C13.1181064,5.6050141 12.5185865,5.19914026 11.831364,4.90310686 C11.1454504,4.60841299 10.418958,4.45972653 9.65450473,4.45972653 C8.89136046,4.45972653 8.16486805,4.60841299 7.47633651,4.90310686 C6.78911396,5.19914026 6.1909031,5.6050141 5.68170391,6.11804935 C5.17119574,6.62974508 4.77195216,7.22850946 4.47742821,7.90898442 C4.18421326,8.58945937 4.04022377,9.31547792 4.04022377,10.0857006 L4.04022377,10.1620531 L4.04022377,28.6942794 L0.140726694,24.7266282 L0.140726694,10.1620531 L0.140726694,10.0857006 C0.140726694,8.77565232 0.390744801,7.53659852 0.88685403,6.36719963 C1.38427225,5.19914026 2.05709585,4.17708831 2.9118698,3.30372282 C3.76533475,2.43169685 4.77195216,1.73782672 5.93041303,1.22345195 C7.08756489,0.711756215 8.32980146,0.453229314 9.65450473,0.453229314 C10.9517191,0.453229314 12.1887197,0.711756215 13.3589615,1.22345195 C14.5305123,1.73782672 15.5489107,2.43169685 16.4154656,3.30372282 C17.2807115,4.17708831 17.969243,5.19914026 18.4784422,6.36719963 C18.9889504,7.53659852 19.2428955,8.77565232 19.2428955,10.0857006 C19.2428955,11.4211996 18.9889504,12.6723091 18.4784422,13.841708 C17.969243,15.0111069 17.2807115,16.0304798 16.4154656,16.9038453 C15.5489107,17.7772108 14.5305123,18.4643833 13.3589615,18.9653629 C12.1887197,19.467682 10.9517191,19.7181718 9.65450473,19.7181718" id="Fill-1" fill="#FEFEFE" mask="url(#mask-2)"></path>
                    </g>
                    <mask id="mask-4" fill="white">
                        <use xlink:href="#path-3"></use>
                    </mask>
                    <g id="Clip-5"></g>
                    <polygon id="Fill-4" fill="#FEFEFE" mask="url(#mask-4)" points="41.8878505 27.9183673 45.7663551 27.9183673 45.7663551 8.53061224 41.8878505 8.53061224"></polygon>
                    <polygon id="Fill-6" fill="#7CBE75" mask="url(#mask-4)" points="45.7663551 4.65306122 41.8878505 4.65306122 41.8878505 3.84054046 45.7663551 0"></polygon>
                    <path d="M60.8379182,15.4434998 C62.1718144,16.3307837 63.2381245,17.4719551 64.0368485,18.8656916 C64.8328833,20.2607505 65.2053523,21.7682074 65.1542555,23.3920295 L65.1542555,27.9183673 L61.1122275,27.9183673 L61.1122275,23.3920295 C61.1122275,22.6316893 60.9616263,21.9163085 60.660424,21.2432421 C60.3605663,20.5714982 59.9477577,19.983061 59.4246876,19.4739637 C58.9029621,18.9675111 58.2871109,18.5668449 57.5811679,18.2772545 C56.8738802,17.9863417 56.1141511,17.839563 55.3046698,17.839563 L54.7157116,17.839563 L54.4024074,17.839563 L54.3647571,17.839563 L52.8721919,17.839563 L52.8721919,27.9183673 L48.8691589,27.9183673 L48.8691589,3.95773568 L52.8721919,0 L52.8721919,13.8448021 L54.4024074,13.8448021 C55.1863403,13.8448021 55.9272443,13.700668 56.6183961,13.4097553 C57.3122372,13.1161979 57.9200205,12.7234657 58.4444353,12.228914 C58.9661608,11.7356847 59.3789694,11.1446029 59.6801717,10.4609579 C59.9800294,9.77599061 60.1319752,9.05267574 60.1319752,8.29233561 L64.2129981,8.29233561 C64.2129981,9.73896535 63.9037279,11.0758417 63.2905659,12.3056092 C62.6747147,13.5353767 61.8571655,14.5826626 60.8379182,15.4434998" id="Fill-7" fill="#FEFEFE" mask="url(#mask-4)"></path>
                    <path d="M78.679858,15.4434998 C80.0125005,16.3307837 81.0788835,17.4719551 81.8776622,18.8656916 C82.6750961,20.2607505 83.0475906,21.7682074 82.9951455,23.3920295 L82.9951455,27.9183673 L78.9528413,27.9183673 L78.9528413,23.3920295 C78.9528413,22.6316893 78.8035745,21.9163085 78.5023516,21.2432421 C78.2024734,20.5714982 77.7882919,19.983061 77.2651859,19.4739637 C76.7434248,18.9675111 76.1275315,18.5668449 75.4215402,18.2772545 C74.7155489,17.9863417 73.9557679,17.839563 73.1448865,17.839563 L72.555888,17.839563 L72.2439071,17.839563 L72.2049095,17.839563 L70.7122423,17.839563 L70.7122423,27.9183673 L66.7102804,27.9183673 L66.7102804,3.95773568 L70.7122423,0 L70.7122423,13.8448021 L72.2439071,13.8448021 C73.0265489,13.8448021 73.7675035,13.700668 74.4600473,13.4097553 C75.1525911,13.1161979 75.7617607,12.7234657 76.2848666,12.228914 C76.8079726,11.7356847 77.2194646,11.1446029 77.5206875,10.4609579 C77.8219105,9.77599061 77.972522,9.05267574 77.972522,8.29233561 L82.0538238,8.29233561 C82.0538238,9.73896535 81.7458772,11.0758417 81.1326733,12.3056092 C80.51678,13.5353767 79.6991749,14.5826626 78.679858,15.4434998" id="Fill-8" fill="#FEFEFE" mask="url(#mask-4)"></path>
                    <path d="M9.69626168,23.886329 C10.4710589,23.886329 11.2019997,23.7380427 11.887755,23.4387741 C12.5721814,23.1422016 13.1728818,22.7404806 13.6911853,22.2376553 C14.2094887,21.732134 14.6148286,21.1389889 14.9125209,20.454176 C15.2102131,19.7693631 15.3590592,19.0279317 15.3590592,18.2258379 L19.3925234,18.2258379 C19.3925234,19.5698506 19.1386876,20.8289358 18.6376609,22.0044415 C18.1326473,23.1812952 17.438918,24.2098627 16.5604601,25.0887958 C15.6820022,25.9677289 14.6533691,26.6579341 13.478548,27.1634555 C12.2997398,27.6662807 11.0411927,27.9183673 9.69626168,27.9183673 C8.35000167,27.9183673 7.09145454,27.6662807 5.9139754,27.1634555 C4.73915422,26.6579341 3.70919221,25.9677289 2.83206327,25.0887958 C1.95227637,24.2098627 1.25987611,23.1812952 0.754862477,22.0044415 C0.252506815,20.8289358 0,19.5698506 0,18.2258379 C0,16.8818251 0.252506815,15.6213918 0.754862477,14.4445381 C1.25987611,13.2676844 1.95227637,12.240465 2.83206327,11.3615318 C3.70919221,10.4839468 4.73915422,9.7910455 5.9139754,9.2868722 C7.09145454,8.7826989 8.35000167,8.53061224 9.69626168,8.53061224 C11.0146131,8.53061224 12.2425936,8.77056638 13.3788742,9.2491266 C14.5178129,9.72768682 15.5265111,10.3774503 16.407627,11.2065053 L16.4820501,11.2846926 L19.1214108,13.9996793 L12.366189,20.7130029 L7.01171555,20.7130029 L13.5755637,14.0360768 C13.0838399,13.5966103 12.5017453,13.2420713 11.8279508,12.9697638 C11.1581432,12.7001524 10.4444792,12.5639986 9.69626168,12.5639986 C8.92013547,12.5639986 8.18919469,12.7122849 7.50476833,13.0102055 C6.82034196,13.306778 6.21831256,13.7138912 5.70133808,14.230197 C5.18303462,14.749199 4.77769473,15.3490843 4.4786735,16.0338972 C4.18231024,16.7200582 4.03346412,17.449357 4.03346412,18.2258379 C4.03346412,18.9996225 4.18231024,19.7316175 4.4786735,20.4164304 C4.77769473,21.1012433 5.18303462,21.7024767 5.70133808,22.2187825 C6.21831256,22.7350884 6.82034196,23.1422016 7.50476833,23.4387741 C8.18919469,23.7380427 8.92013547,23.886329 9.69626168,23.886329" id="Fill-9" fill="#FEFEFE" mask="url(#mask-4)"></path>
                </g>
            </g>
        </g>
    </g>
</svg>